<svg width="258" height="125" viewBox="0 0 258 125" fill="none" xmlns="http://www.w3.org/2000/svg">
<g filter="url(#filter0_d_932_11034)">
<path d="M110.221 71C109.747 71 109.332 70.837 108.976 70.5111C108.65 70.1852 108.487 69.7704 108.487 69.2667V38.0222C108.487 37.5481 108.65 37.1481 108.976 36.8222C109.332 36.4667 109.747 36.2889 110.221 36.2889C110.695 36.2889 111.095 36.4667 111.421 36.8222C111.776 37.1481 111.954 37.5481 111.954 38.0222V67.7111H129.332C129.806 67.7111 130.206 67.8741 130.532 68.2C130.887 68.4963 131.065 68.8815 131.065 69.3556C131.065 69.8296 130.887 70.2296 130.532 70.5556C130.206 70.8519 129.806 71 129.332 71H110.221ZM146.568 71.2222C144.198 71.2222 142.079 70.6889 140.212 69.6222C138.346 68.5556 136.879 67.0889 135.812 65.2222C134.746 63.3556 134.212 61.237 134.212 58.8667C134.212 56.4667 134.746 54.3333 135.812 52.4667C136.879 50.6 138.346 49.1333 140.212 48.0667C142.079 47 144.198 46.4667 146.568 46.4667C148.938 46.4667 151.042 47 152.879 48.0667C154.746 49.1333 156.212 50.6 157.279 52.4667C158.346 54.3333 158.894 56.4667 158.923 58.8667C158.923 61.237 158.375 63.3556 157.279 65.2222C156.212 67.0889 154.746 68.5556 152.879 69.6222C151.042 70.6889 148.938 71.2222 146.568 71.2222ZM146.568 68.1111C148.286 68.1111 149.827 67.7111 151.19 66.9111C152.553 66.1111 153.62 65.0148 154.39 63.6222C155.161 62.2296 155.546 60.6444 155.546 58.8667C155.546 57.0889 155.161 55.5037 154.39 54.1111C153.62 52.6889 152.553 51.5778 151.19 50.7778C149.827 49.9778 148.286 49.5778 146.568 49.5778C144.849 49.5778 143.309 49.9778 141.946 50.7778C140.583 51.5778 139.501 52.6889 138.701 54.1111C137.931 55.5037 137.546 57.0889 137.546 58.8667C137.546 60.6444 137.931 62.2296 138.701 63.6222C139.501 65.0148 140.583 66.1111 141.946 66.9111C143.309 67.7111 144.849 68.1111 146.568 68.1111ZM175.624 71.2222C173.283 71.2222 171.209 70.7037 169.402 69.6667C167.594 68.6 166.172 67.1333 165.135 65.2667C164.128 63.4 163.624 61.2667 163.624 58.8667C163.624 56.437 164.157 54.2889 165.224 52.4222C166.29 50.5556 167.757 49.1037 169.624 48.0667C171.49 47 173.609 46.4667 175.979 46.4667C178.379 46.4667 180.498 47 182.335 48.0667C184.202 49.1037 185.653 50.5556 186.691 52.4222C187.757 54.2889 188.305 56.437 188.335 58.8667L186.335 59.9333C186.335 62.1259 185.876 64.0815 184.957 65.8C184.039 67.4889 182.765 68.8222 181.135 69.8C179.535 70.7481 177.698 71.2222 175.624 71.2222ZM176.068 80.6C173.728 80.6 171.668 80.1556 169.89 79.2667C168.113 78.4074 166.646 77.2222 165.49 75.7111C165.165 75.3556 165.016 74.9704 165.046 74.5556C165.105 74.1407 165.328 73.8 165.713 73.5333C166.098 73.2667 166.528 73.1778 167.002 73.2667C167.476 73.3556 167.846 73.5778 168.113 73.9333C168.972 75 170.068 75.8593 171.402 76.5111C172.765 77.163 174.335 77.4889 176.113 77.4889C177.772 77.4889 179.268 77.0889 180.602 76.2889C181.935 75.4889 182.987 74.363 183.757 72.9111C184.557 71.4593 184.957 69.7556 184.957 67.8V61.0444L186.246 58.4667L188.335 58.8667V67.9333C188.335 70.3333 187.802 72.4815 186.735 74.3778C185.668 76.3037 184.216 77.8148 182.379 78.9111C180.542 80.037 178.439 80.6 176.068 80.6ZM175.979 68.1111C177.728 68.1111 179.268 67.7259 180.602 66.9556C181.965 66.1556 183.031 65.0593 183.802 63.6667C184.572 62.2741 184.957 60.6741 184.957 58.8667C184.957 57.0593 184.572 55.4593 183.802 54.0667C183.031 52.6444 181.965 51.5481 180.602 50.7778C179.268 49.9778 177.728 49.5778 175.979 49.5778C174.231 49.5778 172.676 49.9778 171.313 50.7778C169.95 51.5481 168.883 52.6444 168.113 54.0667C167.342 55.4593 166.957 57.0593 166.957 58.8667C166.957 60.6741 167.342 62.2741 168.113 63.6667C168.883 65.0593 169.95 66.1556 171.313 66.9556C172.676 67.7259 174.231 68.1111 175.979 68.1111ZM205.391 71.2222C203.02 71.2222 200.902 70.6889 199.035 69.6222C197.169 68.5556 195.702 67.0889 194.635 65.2222C193.569 63.3556 193.035 61.237 193.035 58.8667C193.035 56.4667 193.569 54.3333 194.635 52.4667C195.702 50.6 197.169 49.1333 199.035 48.0667C200.902 47 203.02 46.4667 205.391 46.4667C207.761 46.4667 209.865 47 211.702 48.0667C213.569 49.1333 215.035 50.6 216.102 52.4667C217.169 54.3333 217.717 56.4667 217.746 58.8667C217.746 61.237 217.198 63.3556 216.102 65.2222C215.035 67.0889 213.569 68.5556 211.702 69.6222C209.865 70.6889 207.761 71.2222 205.391 71.2222ZM205.391 68.1111C207.109 68.1111 208.65 67.7111 210.013 66.9111C211.376 66.1111 212.443 65.0148 213.213 63.6222C213.983 62.2296 214.369 60.6444 214.369 58.8667C214.369 57.0889 213.983 55.5037 213.213 54.1111C212.443 52.6889 211.376 51.5778 210.013 50.7778C208.65 49.9778 207.109 49.5778 205.391 49.5778C203.672 49.5778 202.132 49.9778 200.769 50.7778C199.406 51.5778 198.324 52.6889 197.524 54.1111C196.754 55.5037 196.369 57.0889 196.369 58.8667C196.369 60.6444 196.754 62.2296 197.524 63.6222C198.324 65.0148 199.406 66.1111 200.769 66.9111C202.132 67.7111 203.672 68.1111 205.391 68.1111Z" fill="black"/>
<path fill-rule="evenodd" clip-rule="evenodd" d="M64.7599 36.6295H40L40.0003 36.6298V61.3896L50.4256 71.8149V47.0549L50.4254 47.0548H75.1852L64.7599 36.6295Z" fill="#CCCCCC"/>
<path fill-rule="evenodd" clip-rule="evenodd" d="M64.7602 61.3895V36.6295L75.1854 47.0548V71.8145L75.1855 71.8147H75.1854V71.8147L75.1854 71.8147H50.4256L40.0004 61.3895L64.7602 61.3895Z" fill="black"/>
</g>
<defs>
<filter id="filter0_d_932_11034" x="3.8147e-06" y="-4" width="270.741" height="130" filterUnits="userSpaceOnUse" color-interpolation-filters="sRGB">
<feFlood flood-opacity="0" result="BackgroundImageFix"/>
<feColorMatrix in="SourceAlpha" type="matrix" values="0 0 0 0 0 0 0 0 0 0 0 0 0 0 0 0 0 0 127 0" result="hardAlpha"/>
<feOffset dy="4"/>
<feGaussianBlur stdDeviation="20"/>
<feComposite in2="hardAlpha" operator="out"/>
<feColorMatrix type="matrix" values="0 0 0 0 0 0 0 0 0 0 0 0 0 0 0 0 0 0 0.25 0"/>
<feBlend mode="normal" in2="BackgroundImageFix" result="effect1_dropShadow_932_11034"/>
<feBlend mode="normal" in="SourceGraphic" in2="effect1_dropShadow_932_11034" result="shape"/>
</filter>
</defs>
</svg>
